<mxfile host="app.diagrams.net" modified="2023-07-04T06:39:43.565Z" agent="Mozilla/5.0 (Windows NT 10.0; Win64; x64; rv:109.0) Gecko/20100101 Firefox/114.0" etag="wK341KwotYQKjD_uyPJZ" version="21.5.2" type="github">
  <diagram name="Page-1" id="bdGRdHRWRjXDtAUvYsLu">
    <mxGraphModel dx="1434" dy="782" grid="1" gridSize="10" guides="1" tooltips="1" connect="1" arrows="1" fold="1" page="1" pageScale="1" pageWidth="850" pageHeight="1100" math="0" shadow="0">
      <root>
        <mxCell id="0" />
        <mxCell id="1" parent="0" />
        <mxCell id="us02weyp6JWpoHAj8zoD-1" value="" style="rounded=0;whiteSpace=wrap;html=1;fillColor=none;" vertex="1" parent="1">
          <mxGeometry x="105" y="150" width="640" height="400" as="geometry" />
        </mxCell>
        <mxCell id="us02weyp6JWpoHAj8zoD-2" value="" style="rounded=0;whiteSpace=wrap;html=1;fillColor=none;" vertex="1" parent="1">
          <mxGeometry x="265" y="230" width="320" height="180" as="geometry" />
        </mxCell>
        <mxCell id="us02weyp6JWpoHAj8zoD-3" value="" style="rounded=1;whiteSpace=wrap;html=1;" vertex="1" parent="1">
          <mxGeometry x="440" y="310" width="120" height="20" as="geometry" />
        </mxCell>
        <mxCell id="us02weyp6JWpoHAj8zoD-4" value="&lt;div align=&quot;left&quot;&gt;*****&lt;/div&gt;" style="rounded=1;whiteSpace=wrap;html=1;align=left;" vertex="1" parent="1">
          <mxGeometry x="440" y="340" width="120" height="20" as="geometry" />
        </mxCell>
        <mxCell id="us02weyp6JWpoHAj8zoD-5" value="User login" style="rounded=0;whiteSpace=wrap;html=1;fillColor=none;strokeColor=none;" vertex="1" parent="1">
          <mxGeometry x="360" y="240" width="120" height="30" as="geometry" />
        </mxCell>
        <mxCell id="us02weyp6JWpoHAj8zoD-6" value="Password" style="rounded=1;whiteSpace=wrap;html=1;fillColor=none;" vertex="1" parent="1">
          <mxGeometry x="290" y="340" width="120" height="20" as="geometry" />
        </mxCell>
        <mxCell id="us02weyp6JWpoHAj8zoD-7" value="email" style="rounded=1;whiteSpace=wrap;html=1;fillColor=none;" vertex="1" parent="1">
          <mxGeometry x="290" y="310" width="120" height="20" as="geometry" />
        </mxCell>
      </root>
    </mxGraphModel>
  </diagram>
</mxfile>
